<svg xmlns="http://www.w3.org/2000/svg" version="1.1" xmlns:xlink="http://www.w3.org/1999/xlink" xmlns:svgjs="http://svgjs.dev/svgjs" width="1000" height="323" viewBox="0 0 1000 323"><g transform="matrix(1,0,0,1,-0.6060606060606233,0.44385323446232405)"><svg viewBox="0 0 396 128" data-background-color="#ffffff" preserveAspectRatio="xMidYMid meet" height="323" width="1000" xmlns="http://www.w3.org/2000/svg" xmlns:xlink="http://www.w3.org/1999/xlink"><defs></defs><g id="tight-bounds" transform="matrix(1,0,0,1,0.2400000000000091,-0.17589230344017892)"><svg viewBox="0 0 395.52 128.35128303781954" height="128.35128303781954" width="395.52"><g><svg viewBox="0 0 395.52 128.35128303781954" height="128.35128303781954" width="395.52"><g><svg viewBox="0 0 395.52 128.35128303781954" height="128.35128303781954" width="395.52"><g><svg viewBox="0 0 395.52 128.35128303781954" height="128.35128303781954" width="395.52"><g><svg viewBox="0 0 395.52 47.39441620626151" height="47.39441620626151" width="395.52"><g transform="matrix(1,0,0,1,0,0)"><svg width="395.52" viewBox="3.8299999237060547 -37.5 397.6600036621094 47.65999984741211" height="47.39441620626151" data-palette-color="#ff5c40"><path d="M20.9 0L14.58-14.38 8.33-14.38 8.33 0 3.83 0 3.83-35.55 13.79-35.55Q19.02-35.55 21.7-32.82 24.39-30.1 24.39-24.85L24.39-24.85Q24.39-21.56 22.94-19.1 21.48-16.65 18.82-15.41L18.82-15.41 25.71-0.29 25.71 0 20.9 0ZM8.33-31.69L8.33-18.21 13.75-18.21Q16.55-18.21 18.23-20.02 19.9-21.83 19.9-24.85L19.9-24.85Q19.9-31.69 13.7-31.69L13.7-31.69 8.33-31.69ZM28.85-11.55L28.85-14.43Q28.85-20.19 31.65-23.55 34.45-26.9 39.04-26.9 43.63-26.9 46.42-23.63 49.22-20.36 49.29-14.72L49.29-14.72 49.29-11.94Q49.29-6.2 46.51-2.86 43.72 0.49 39.08 0.49L39.08 0.49Q34.49 0.49 31.72-2.76 28.95-6.01 28.85-11.55L28.85-11.55ZM33.18-14.45L33.18-11.94Q33.18-7.86 34.78-5.53 36.37-3.2 39.08-3.2L39.08-3.2Q44.8-3.2 44.97-11.45L44.97-11.45 44.97-14.43Q44.97-18.48 43.36-20.84 41.75-23.19 39.04-23.19L39.04-23.19Q36.37-23.19 34.78-20.84 33.18-18.48 33.18-14.45L33.18-14.45ZM64.03-3.2L64.03-3.2Q66.18-3.2 67.48-4.53 68.77-5.86 68.89-8.33L68.89-8.33 72.97-8.33Q72.82-4.52 70.27-2.01 67.72 0.49 64.03 0.49L64.03 0.49Q59.13 0.49 56.55-2.6 53.97-5.69 53.97-11.79L53.97-11.79 53.97-14.7Q53.97-20.68 56.54-23.79 59.1-26.9 64.01-26.9L64.01-26.9Q68.06-26.9 70.44-24.34 72.82-21.78 72.97-17.33L72.97-17.33 68.89-17.33Q68.75-20.26 67.49-21.73 66.23-23.19 64.01-23.19L64.01-23.19Q61.13-23.19 59.74-21.3 58.34-19.41 58.3-15.09L58.3-15.09 58.3-11.72Q58.3-7.06 59.68-5.13 61.05-3.2 64.03-3.2ZM91.76 0L84.59-12.08 82.29-9.45 82.29 0 77.97 0 77.97-37.5 82.29-37.5 82.29-15.06 90.52-26.42 95.7-26.42 87.3-15.38 96.79 0 91.76 0ZM124.18-13.92L117-13.92 117 0 112.54 0 112.54-35.55 123.86-35.55Q128.82-35.55 131.65-32.58 134.48-29.61 134.48-24.68L134.48-24.68Q134.48-19.56 131.79-16.78 129.09-14.01 124.18-13.92L124.18-13.92ZM117-31.69L117-17.75 123.86-17.75Q126.84-17.75 128.43-19.53 130.02-21.31 130.02-24.63L130.02-24.63Q130.02-27.83 128.38-29.76 126.75-31.69 123.89-31.69L123.89-31.69 117-31.69ZM157.46 0L152.96 0Q152.57-0.85 152.4-2.88L152.4-2.88Q150.11 0.49 146.54 0.49L146.54 0.49Q142.95 0.49 140.94-1.53 138.93-3.54 138.93-7.2L138.93-7.2Q138.93-11.23 141.66-13.6 144.39-15.97 149.15-16.02L149.15-16.02 152.33-16.02 152.33-18.82Q152.33-21.19 151.28-22.19 150.23-23.19 148.08-23.19L148.08-23.19Q146.13-23.19 144.91-22.03 143.69-20.87 143.69-19.09L143.69-19.09 139.36-19.09Q139.36-21.12 140.56-22.96 141.76-24.8 143.78-25.85 145.81-26.9 148.3-26.9L148.3-26.9Q152.35-26.9 154.46-24.89 156.58-22.88 156.63-19.02L156.63-19.02 156.63-5.69Q156.65-2.64 157.46-0.39L157.46-0.39 157.46 0ZM147.2-3.44L147.2-3.44Q148.79-3.44 150.23-4.32 151.67-5.2 152.33-6.52L152.33-6.52 152.33-12.82 149.89-12.82Q146.81-12.77 145.03-11.44 143.25-10.11 143.25-7.71L143.25-7.71Q143.25-5.47 144.15-4.46 145.05-3.44 147.2-3.44ZM182.4-14.82L182.4-11.94Q182.4-5.66 180.15-2.59 177.89 0.49 173.76 0.49L173.76 0.49Q169.78 0.49 167.63-2.51L167.63-2.51 167.63 10.16 163.34 10.16 163.34-26.42 167.24-26.42 167.46-23.49Q169.64-26.9 173.69-26.9L173.69-26.9Q178.03-26.9 180.18-23.88 182.33-20.85 182.4-14.82L182.4-14.82ZM178.11-11.77L178.11-14.4Q178.11-18.85 176.74-20.96 175.37-23.07 172.35-23.07L172.35-23.07Q169.25-23.07 167.63-19.97L167.63-19.97 167.63-6.23Q169.22-3.2 172.39-3.2L172.39-3.2Q175.32-3.2 176.7-5.31 178.08-7.42 178.11-11.77L178.11-11.77ZM197.42 0.49L197.42 0.49Q192.48 0.49 189.85-2.45 187.21-5.4 187.16-11.08L187.16-11.08 187.16-14.28Q187.16-20.19 189.74-23.55 192.31-26.9 196.93-26.9L196.93-26.9Q201.57-26.9 203.86-23.95 206.16-21 206.21-14.75L206.21-14.75 206.21-11.91 191.46-11.91 191.46-11.3Q191.46-7.06 193.06-5.13 194.66-3.2 197.66-3.2L197.66-3.2Q199.56-3.2 201.02-3.92 202.47-4.64 203.74-6.2L203.74-6.2 205.99-3.47Q203.18 0.49 197.42 0.49ZM196.93-23.19L196.93-23.19Q194.24-23.19 192.95-21.35 191.65-19.51 191.48-15.63L191.48-15.63 201.88-15.63 201.88-16.21Q201.71-19.97 200.53-21.58 199.35-23.19 196.93-23.19ZM222.27-26.56L222.29-22.36Q221.39-22.53 220.34-22.53L220.34-22.53Q217.02-22.53 215.7-18.9L215.7-18.9 215.7 0 211.38 0 211.38-26.42 215.58-26.42 215.65-23.73Q217.38-26.9 220.56-26.9L220.56-26.9Q221.58-26.9 222.27-26.56L222.27-26.56ZM254.17-8.98L254.17-8.98Q254.17-11.65 252.73-13.06 251.29-14.48 247.53-15.82 243.77-17.16 241.78-18.64 239.79-20.12 238.8-22.01 237.81-23.9 237.81-26.34L237.81-26.34Q237.81-30.57 240.63-33.3 243.45-36.04 248.02-36.04L248.02-36.04Q251.14-36.04 253.59-34.63 256.03-33.23 257.35-30.74 258.66-28.25 258.66-25.27L258.66-25.27 254.17-25.27Q254.17-28.56 252.58-30.37 251-32.18 248.02-32.18L248.02-32.18Q245.31-32.18 243.82-30.66 242.33-29.15 242.33-26.42L242.33-26.42Q242.33-24.17 243.94-22.66 245.55-21.14 248.92-19.95L248.92-19.95Q254.17-18.21 256.43-15.67 258.69-13.13 258.69-9.03L258.69-9.03Q258.69-4.71 255.88-2.11 253.07 0.49 248.24 0.49L248.24 0.49Q245.14 0.49 242.51-0.87 239.89-2.22 238.39-4.68 236.89-7.13 236.89-10.3L236.89-10.3 241.38-10.3Q241.38-7.01 243.22-5.18 245.07-3.34 248.24-3.34L248.24-3.34Q251.19-3.34 252.68-4.86 254.17-6.37 254.17-8.98ZM273.11-3.2L273.11-3.2Q275.26-3.2 276.56-4.53 277.85-5.86 277.97-8.33L277.97-8.33 282.05-8.33Q281.9-4.52 279.35-2.01 276.8 0.49 273.11 0.49L273.11 0.49Q268.21 0.49 265.63-2.6 263.06-5.69 263.06-11.79L263.06-11.79 263.06-14.7Q263.06-20.68 265.62-23.79 268.18-26.9 273.09-26.9L273.09-26.9Q277.14-26.9 279.52-24.34 281.9-21.78 282.05-17.33L282.05-17.33 277.97-17.33Q277.83-20.26 276.57-21.73 275.31-23.19 273.09-23.19L273.09-23.19Q270.21-23.19 268.82-21.3 267.43-19.41 267.38-15.09L267.38-15.09 267.38-11.72Q267.38-7.06 268.76-5.13 270.14-3.2 273.11-3.2ZM291.69-26.42L291.69 0 287.37 0 287.37-26.42 291.69-26.42ZM292.03-33.42L292.03-33.42Q292.03-32.32 291.42-31.59 290.81-30.86 289.57-30.86L289.57-30.86Q288.35-30.86 287.74-31.59 287.13-32.32 287.13-33.42 287.13-34.52 287.74-35.28 288.35-36.04 289.57-36.04 290.79-36.04 291.41-35.27 292.03-34.5 292.03-33.42ZM311.32-6.76L311.32-6.76Q311.32-8.15 310.27-9.16 309.22-10.16 306.22-11.5L306.22-11.5Q302.72-12.94 301.3-13.96 299.87-14.99 299.16-16.3 298.45-17.6 298.45-19.41L298.45-19.41Q298.45-22.63 300.81-24.77 303.16-26.9 306.83-26.9L306.83-26.9Q310.68-26.9 313.03-24.66 315.37-22.41 315.37-18.9L315.37-18.9 311.07-18.9Q311.07-20.68 309.88-21.94 308.68-23.19 306.83-23.19L306.83-23.19Q304.92-23.19 303.83-22.2 302.75-21.22 302.75-19.56L302.75-19.56Q302.75-18.24 303.54-17.43 304.34-16.63 307.36-15.31L307.36-15.31Q312.17-13.43 313.91-11.63 315.64-9.84 315.64-7.08L315.64-7.08Q315.64-3.64 313.27-1.57 310.9 0.49 306.92 0.49L306.92 0.49Q302.8 0.49 300.23-1.88 297.67-4.25 297.67-7.89L297.67-7.89 302.02-7.89Q302.09-5.69 303.36-4.44 304.63-3.2 306.92-3.2L306.92-3.2Q309.07-3.2 310.19-4.16 311.32-5.13 311.32-6.76ZM334.09-6.76L334.09-6.76Q334.09-8.15 333.04-9.16 331.99-10.16 328.99-11.5L328.99-11.5Q325.5-12.94 324.07-13.96 322.64-14.99 321.94-16.3 321.23-17.6 321.23-19.41L321.23-19.41Q321.23-22.63 323.58-24.77 325.94-26.9 329.6-26.9L329.6-26.9Q333.46-26.9 335.8-24.66 338.15-22.41 338.15-18.9L338.15-18.9 333.85-18.9Q333.85-20.68 332.65-21.94 331.46-23.19 329.6-23.19L329.6-23.19Q327.7-23.19 326.61-22.2 325.52-21.22 325.52-19.56L325.52-19.56Q325.52-18.24 326.32-17.43 327.11-16.63 330.14-15.31L330.14-15.31Q334.95-13.43 336.68-11.63 338.41-9.84 338.41-7.08L338.41-7.08Q338.41-3.64 336.05-1.57 333.68 0.49 329.7 0.49L329.7 0.49Q325.57 0.49 323.01-1.88 320.45-4.25 320.45-7.89L320.45-7.89 324.79-7.89Q324.86-5.69 326.13-4.44 327.4-3.2 329.7-3.2L329.7-3.2Q331.85-3.2 332.97-4.16 334.09-5.13 334.09-6.76ZM343.12-11.55L343.12-14.43Q343.12-20.19 345.92-23.55 348.71-26.9 353.3-26.9 357.89-26.9 360.69-23.63 363.49-20.36 363.56-14.72L363.56-14.72 363.56-11.94Q363.56-6.2 360.78-2.86 357.99 0.49 353.35 0.49L353.35 0.49Q348.76 0.49 345.99-2.76 343.22-6.01 343.12-11.55L343.12-11.55ZM347.45-14.45L347.45-11.94Q347.45-7.86 349.04-5.53 350.64-3.2 353.35-3.2L353.35-3.2Q359.07-3.2 359.24-11.45L359.24-11.45 359.24-14.43Q359.24-18.48 357.63-20.84 356.01-23.19 353.3-23.19L353.3-23.19Q350.64-23.19 349.04-20.84 347.45-18.48 347.45-14.45L347.45-14.45ZM380.01-26.56L380.04-22.36Q379.13-22.53 378.08-22.53L378.08-22.53Q374.76-22.53 373.44-18.9L373.44-18.9 373.44 0 369.12 0 369.12-26.42 373.32-26.42 373.4-23.73Q375.13-26.9 378.3-26.9L378.3-26.9Q379.33-26.9 380.01-26.56L380.01-26.56ZM397.17-6.76L397.17-6.76Q397.17-8.15 396.12-9.16 395.07-10.16 392.07-11.5L392.07-11.5Q388.58-12.94 387.15-13.96 385.72-14.99 385.01-16.3 384.31-17.6 384.31-19.41L384.31-19.41Q384.31-22.63 386.66-24.77 389.02-26.9 392.68-26.9L392.68-26.9Q396.54-26.9 398.88-24.66 401.22-22.41 401.22-18.9L401.22-18.9 396.93-18.9Q396.93-20.68 395.73-21.94 394.54-23.19 392.68-23.19L392.68-23.19Q390.78-23.19 389.69-22.2 388.6-21.22 388.6-19.56L388.6-19.56Q388.6-18.24 389.4-17.43 390.19-16.63 393.22-15.31L393.22-15.31Q398.03-13.43 399.76-11.63 401.49-9.84 401.49-7.08L401.49-7.08Q401.49-3.64 399.12-1.57 396.76 0.49 392.78 0.49L392.78 0.49Q388.65 0.49 386.09-1.88 383.52-4.25 383.52-7.89L383.52-7.89 387.87-7.89Q387.94-5.69 389.21-4.44 390.48-3.2 392.78-3.2L392.78-3.2Q394.93-3.2 396.05-4.16 397.17-5.13 397.17-6.76Z" opacity="1" transform="matrix(1,0,0,1,0,0)" fill="#ff5c40" class="undefined-text-0" data-fill-palette-color="primary" id="text-0"></path></svg></g></svg></g><g transform="matrix(1,0,0,1,0,69.77178460688029)"><svg viewBox="0 0 395.52 58.579498430939225" height="58.579498430939225" width="395.52"><path d="M395.52 0l-9.763 29.29 9.763 29.29h-395.52l9.763-29.29-9.763-29.29z" data-fill-palette-color="tertiary" opacity="1" fill="#0074d9"></path><g transform="matrix(1,0,0,1,170.67204897871943,11.188684200309392)"><svg width="54.1759020425611" viewBox="2.200000047683716 -35.20000076293945 53.20000076293945 35.54999923706055" height="36.20213003032044" data-palette-color="#ff5c40"><path d="M16.95-34.75L22.7-34.75 22.7-9.7Q22.7-5.05 19.88-2.35 17.05 0.35 12.45 0.35L12.45 0.35Q7.85 0.35 5.03-2.35 2.2-5.05 2.2-9.7L2.2-9.7 7.95-9.7Q8-7.4 9.13-6.05 10.25-4.7 12.45-4.7L12.45-4.7Q14.65-4.7 15.8-6.08 16.95-7.45 16.95-9.7L16.95-9.7 16.95-34.75ZM43.4 0.35Q39.9 0.35 37.1-0.88 34.3-2.1 32.7-4.35 31.1-6.6 31.1-9.6L31.1-9.6 37.2-9.6Q37.4-7.35 38.97-5.9 40.55-4.45 43.4-4.45L43.4-4.45Q46.35-4.45 48-5.88 49.65-7.3 49.65-9.55L49.65-9.55Q49.65-11.3 48.62-12.4 47.6-13.5 46.07-14.1 44.55-14.7 41.85-15.4L41.85-15.4Q38.45-16.3 36.32-17.23 34.2-18.15 32.7-20.1 31.2-22.05 31.2-25.3L31.2-25.3Q31.2-28.3 32.7-30.55 34.2-32.8 36.9-34 39.6-35.2 43.15-35.2L43.15-35.2Q48.2-35.2 51.42-32.68 54.65-30.15 55-25.75L55-25.75 48.7-25.75Q48.55-27.65 46.9-29 45.25-30.35 42.55-30.35L42.55-30.35Q40.1-30.35 38.55-29.1 37-27.85 37-25.5L37-25.5Q37-23.9 37.97-22.88 38.95-21.85 40.45-21.25 41.95-20.65 44.55-19.95L44.55-19.95Q48-19 50.17-18.05 52.35-17.1 53.87-15.13 55.4-13.15 55.4-9.85L55.4-9.85Q55.4-7.2 53.97-4.85 52.55-2.5 49.82-1.07 47.1 0.35 43.4 0.35L43.4 0.35Z" opacity="1" transform="matrix(1,0,0,1,0,0)" fill="#ff5c40" class="undefined-text-1" data-fill-palette-color="quaternary" id="text-1"></path></svg></g></svg></g></svg></g></svg></g><g></g></svg></g></svg><rect width="395.52" height="128.35128303781954" fill="transparent" stroke="transparent"></rect></g></svg></g></svg>